{
  "accessors": [
    {
      "bufferView": 2,
      "componentType": 5126,
      "count": 65534,
      "max": [
        0.05295366793870926,
        0.04908066987991333,
        0.11124559491872787
      ],
      "min": [
        -0.029255017638206482,
        -0.05352572351694107,
        0.019417032599449158
      ],
      "type": "VEC3"
    },
    {
      "bufferView": 2,
      "byteOffset": 786408,
      "componentType": 5126,
      "count": 65534,
      "max": [
        0.9999743700027466,
        0.9999858736991882,
        0.9999639391899109
      ],
      "min": [
        -0.9982031583786011,
        -0.9999195337295532,
        -0.9999250769615173
      ],
      "type": "VEC3"
    },
    {
      "bufferView": 1,
      "componentType": 5126,
      "count": 65534,
      "max": [
        0.9994822144508362,
        0.9995115995407104
      ],
      "min": [
        0.00048828125,
        0.0004959298530593514
      ],
      "type": "VEC2"
    },
    {
      "bufferView": 1,
      "byteOffset": 524272,
      "componentType": 5126,
      "count": 65534,
      "max": [
        0.9994822144508362,
        0.9995115995407104
      ],
      "min": [
        0.00048828125,
        0.0004959298530593514
      ],
      "type": "VEC2"
    },
    {
      "bufferView": 0,
      "componentType": 5125,
      "count": 244173,
      "type": "SCALAR"
    },
    {
      "bufferView": 2,
      "byteOffset": 1572816,
      "componentType": 5126,
      "count": 65532,
      "max": [
        0.03176293894648552,
        0.0504852831363678,
        0.11309356987476349
      ],
      "min": [
        -0.04534444212913513,
        -0.06517821550369263,
        0.017682433128356934
      ],
      "type": "VEC3"
    },
    {
      "bufferView": 2,
      "byteOffset": 2359200,
      "componentType": 5126,
      "count": 65532,
      "max": [
        0.9999741315841675,
        0.9999748468399048,
        0.9999890327453613
      ],
      "min": [
        -0.999991774559021,
        -0.9999900460243225,
        -0.9999923706054688
      ],
      "type": "VEC3"
    },
    {
      "bufferView": 1,
      "byteOffset": 1048544,
      "componentType": 5126,
      "count": 65532,
      "max": [
        0.9994929432868958,
        0.9975584745407104
      ],
      "min": [
        0.00048828125,
        0.0005627466598525643
      ],
      "type": "VEC2"
    },
    {
      "bufferView": 1,
      "byteOffset": 1572800,
      "componentType": 5126,
      "count": 65532,
      "max": [
        0.9994929432868958,
        0.9975584745407104
      ],
      "min": [
        0.00048828125,
        0.0005627466598525643
      ],
      "type": "VEC2"
    },
    {
      "bufferView": 0,
      "byteOffset": 976692,
      "componentType": 5125,
      "count": 242793,
      "type": "SCALAR"
    },
    {
      "bufferView": 2,
      "byteOffset": 3145584,
      "componentType": 5126,
      "count": 65532,
      "max": [
        0.000631384551525116,
        0.04460497200489044,
        0.11342824250459671
      ],
      "min": [
        -0.048936352133750916,
        -0.06574167311191559,
        3.3035874366760254e-05
      ],
      "type": "VEC3"
    },
    {
      "bufferView": 2,
      "byteOffset": 3931968,
      "componentType": 5126,
      "count": 65532,
      "max": [
        0.9999983906745911,
        0.9999979138374329,
        0.9999874234199524
      ],
      "min": [
        -0.9999930262565613,
        -0.9999732375144958,
        -0.9999995231628418
      ],
      "type": "VEC3"
    },
    {
      "bufferView": 1,
      "byteOffset": 2097056,
      "componentType": 5126,
      "count": 65532,
      "max": [
        0.9994338750839233,
        0.9995115995407104
      ],
      "min": [
        0.00048828125,
        0.0004943205276504159
      ],
      "type": "VEC2"
    },
    {
      "bufferView": 1,
      "byteOffset": 2621312,
      "componentType": 5126,
      "count": 65532,
      "max": [
        0.9994338750839233,
        0.9995115995407104
      ],
      "min": [
        0.00048828125,
        0.0004943205276504159
      ],
      "type": "VEC2"
    },
    {
      "bufferView": 0,
      "byteOffset": 1947864,
      "componentType": 5125,
      "count": 230955,
      "type": "SCALAR"
    },
    {
      "bufferView": 2,
      "byteOffset": 4718352,
      "componentType": 5126,
      "count": 12392,
      "max": [
        0.00044301897287368774,
        0.0427040159702301,
        0.1113588735461235
      ],
      "min": [
        -0.04560564458370209,
        -0.0003848820924758911,
        0.03396868705749512
      ],
      "type": "VEC3"
    },
    {
      "bufferView": 2,
      "byteOffset": 4867056,
      "componentType": 5126,
      "count": 12392,
      "max": [
        0.9998651146888733,
        0.9997200965881348,
        0.9999231696128845
      ],
      "min": [
        -0.9998686909675598,
        -0.9980780482292175,
        -0.9785112738609314
      ],
      "type": "VEC3"
    },
    {
      "bufferView": 1,
      "byteOffset": 3145568,
      "componentType": 5126,
      "count": 12392,
      "max": [
        0.9994060397148132,
        0.9995115995407104
      ],
      "min": [
        0.00048828125,
        0.0005189968505874276
      ],
      "type": "VEC2"
    },
    {
      "bufferView": 1,
      "byteOffset": 3244704,
      "componentType": 5126,
      "count": 12392,
      "max": [
        0.9994060397148132,
        0.9995115995407104
      ],
      "min": [
        0.00048828125,
        0.0005189968505874276
      ],
      "type": "VEC2"
    },
    {
      "bufferView": 0,
      "byteOffset": 2871684,
      "componentType": 5125,
      "count": 36711,
      "type": "SCALAR"
    }
  ],
  "asset": {
    "extras": {
      "author": "M Parkinson (https://sketchfab.com/chimaera_studio)",
      "license": "SKETCHFAB Standard (https://sketchfab.com/licenses)",
      "source": "https://sketchfab.com/3d-models/sunflower-698cc100e4194c51b62275664fd9b166",
      "title": "Sunflower"
    },
    "generator": "Sketchfab-16.56.0",
    "version": "2.0"
  },
  "bufferViews": [
    {
      "buffer": 0,
      "byteLength": 3018528,
      "name": "floatBufferViews",
      "target": 34963
    },
    {
      "buffer": 0,
      "byteLength": 3343840,
      "byteOffset": 3018528,
      "byteStride": 8,
      "name": "floatBufferViews",
      "target": 34962
    },
    {
      "buffer": 0,
      "byteLength": 5015760,
      "byteOffset": 6362368,
      "byteStride": 12,
      "name": "floatBufferViews",
      "target": 34962
    }
  ],
  "buffers": [
    {
      "byteLength": 11378128,
      "uri": "scene.bin"
    }
  ],
  "extensionsUsed": [
    "KHR_materials_unlit"
  ],
  "images": [
    {
      "uri": "textures/tex_u1_v1_baseColor.jpeg"
    }
  ],
  "materials": [
    {
      "doubleSided": true,
      "extensions": {
        "KHR_materials_unlit": {}
      },
      "name": "tex_u1_v1",
      "pbrMetallicRoughness": {
        "baseColorTexture": {
          "index": 0
        },
        "metallicFactor": 0.0
      }
    }
  ],
  "meshes": [
    {
      "name": "model_tex_u1_v1_0",
      "primitives": [
        {
          "attributes": {
            "NORMAL": 1,
            "POSITION": 0,
            "TEXCOORD_0": 2,
            "TEXCOORD_1": 3
          },
          "indices": 4,
          "material": 0,
          "mode": 4
        }
      ]
    },
    {
      "name": "model_tex_u1_v1_0",
      "primitives": [
        {
          "attributes": {
            "NORMAL": 6,
            "POSITION": 5,
            "TEXCOORD_0": 7,
            "TEXCOORD_1": 8
          },
          "indices": 9,
          "material": 0,
          "mode": 4
        }
      ]
    },
    {
      "name": "model_tex_u1_v1_0",
      "primitives": [
        {
          "attributes": {
            "NORMAL": 11,
            "POSITION": 10,
            "TEXCOORD_0": 12,
            "TEXCOORD_1": 13
          },
          "indices": 14,
          "material": 0,
          "mode": 4
        }
      ]
    },
    {
      "name": "model_tex_u1_v1_0",
      "primitives": [
        {
          "attributes": {
            "NORMAL": 16,
            "POSITION": 15,
            "TEXCOORD_0": 17,
            "TEXCOORD_1": 18
          },
          "indices": 19,
          "material": 0,
          "mode": 4
        }
      ]
    }
  ],
  "nodes": [
    {
      "children": [
        1
      ],
      "matrix": [
        1.0,
        0.0,
        0.0,
        0.0,
        0.0,
        2.220446049250313e-16,
        -1.0,
        0.0,
        0.0,
        1.0,
        2.220446049250313e-16,
        0.0,
        0.0,
        0.0,
        0.0,
        1.0
      ],
      "name": "Sketchfab_model"
    },
    {
      "children": [
        2
      ],
      "matrix": [
        1.0,
        0.0,
        0.0,
        0.0,
        0.0,
        0.0,
        1.0,
        0.0,
        0.0,
        -1.0,
        0.0,
        0.0,
        0.0,
        0.0,
        0.0,
        1.0
      ],
      "name": "model.fbx"
    },
    {
      "children": [
        3
      ],
      "name": "RootNode"
    },
    {
      "children": [
        4,
        5,
        6,
        7
      ],
      "matrix": [
        1.0,
        0.0,
        0.0,
        0.0,
        0.0,
        2.220446049250313e-16,
        -1.0,
        0.0,
        0.0,
        1.0,
        2.220446049250313e-16,
        0.0,
        0.0,
        0.0,
        0.0,
        1.0
      ],
      "name": "model"
    },
    {
      "mesh": 0,
      "name": "model_tex_u1_v1_0"
    },
    {
      "mesh": 1,
      "name": "model_tex_u1_v1_0"
    },
    {
      "mesh": 2,
      "name": "model_tex_u1_v1_0"
    },
    {
      "mesh": 3,
      "name": "model_tex_u1_v1_0"
    }
  ],
  "samplers": [
    {
      "magFilter": 9729,
      "minFilter": 9987,
      "wrapS": 10497,
      "wrapT": 10497
    }
  ],
  "scene": 0,
  "scenes": [
    {
      "name": "Sketchfab_Scene",
      "nodes": [
        0
      ]
    }
  ],
  "textures": [
    {
      "sampler": 0,
      "source": 0
    }
  ]
}
