{
  "asset": {
    "generator": "glTF-Transform v4.2.1",
    "version": "2.0"
  },
  "accessors": [
    {
      "type": "VEC3",
      "componentType": 5126,
      "count": 33498,
      "max": [
        0.49127230048179626,
        0.21784308552742004,
        0.725499153137207
      ],
      "min": [
        -0.24838557839393616,
        0.0004252362996339798,
        -0.7254776954650879
      ],
      "bufferView": 0,
      "byteOffset": 0
    },
    {
      "type": "VEC3",
      "componentType": 5126,
      "count": 33498,
      "bufferView": 0,
      "byteOffset": 12
    },
    {
      "type": "VEC2",
      "componentType": 5126,
      "count": 33498,
      "bufferView": 0,
      "byteOffset": 24
    },
    {
      "type": "VEC4",
      "componentType": 5121,
      "count": 33498,
      "bufferView": 0,
      "byteOffset": 32
    },
    {
      "type": "VEC4",
      "componentType": 5126,
      "count": 33498,
      "bufferView": 0,
      "byteOffset": 36
    },
    {
      "type": "SCALAR",
      "componentType": 5123,
      "count": 85644,
      "bufferView": 1,
      "byteOffset": 0
    },
    {
      "type": "MAT4",
      "componentType": 5126,
      "count": 6,
      "bufferView": 2,
      "byteOffset": 0
    }
  ],
  "bufferViews": [
    {
      "buffer": 0,
      "byteOffset": 0,
      "byteLength": 1741896,
      "byteStride": 52,
      "target": 34962
    },
    {
      "buffer": 0,
      "byteOffset": 1741896,
      "byteLength": 171288,
      "target": 34963
    },
    {
      "buffer": 0,
      "byteOffset": 1913184,
      "byteLength": 384
    }
  ],
  "samplers": [
    {
      "magFilter": 9729,
      "minFilter": 9987,
      "wrapS": 10497,
      "wrapT": 10497
    }
  ],
  "textures": [
    {
      "source": 1,
      "sampler": 0
    },
    {
      "source": 2,
      "sampler": 0
    },
    {
      "source": 3,
      "sampler": 0
    },
    {
      "source": 0,
      "sampler": 0
    }
  ],
  "images": [
    {
      "mimeType": "image/jpeg",
      "uri": "metallicRoughness_1.jpg"
    },
    {
      "mimeType": "image/jpeg",
      "uri": "baseColor_1.jpg"
    },
    {
      "mimeType": "image/jpeg",
      "uri": "emissive_1.jpg"
    },
    {
      "mimeType": "image/jpeg",
      "uri": "normal_1.jpg"
    }
  ],
  "buffers": [
    {
      "uri": "buffer.bin",
      "byteLength": 1913568
    }
  ],
  "materials": [
    {
      "name": "Material",
      "doubleSided": true,
      "pbrMetallicRoughness": {
        "metallicFactor": 0,
        "baseColorTexture": {
          "index": 0
        },
        "metallicRoughnessTexture": {
          "index": 3
        }
      },
      "emissiveFactor": [
        1,
        1,
        1
      ],
      "emissiveTexture": {
        "index": 1
      },
      "normalTexture": {
        "index": 2,
        "scale": 0.21000003814697266
      },
      "extensions": {
        "KHR_materials_emissive_strength": {
          "emissiveStrength": 20
        }
      }
    }
  ],
  "meshes": [
    {
      "primitives": [
        {
          "attributes": {
            "POSITION": 0,
            "NORMAL": 1,
            "TEXCOORD_0": 2,
            "JOINTS_0": 3,
            "WEIGHTS_0": 4
          },
          "mode": 4,
          "material": 0,
          "indices": 5
        }
      ]
    }
  ],
  "nodes": [
    {
      "name": "Scene005",
      "children": [
        1,
        8
      ]
    },
    {
      "name": "Armature001",
      "extras": {
        "name": "Armature.001"
      },
      "children": [
        2,
        7
      ]
    },
    {
      "name": "Bone",
      "extras": {
        "name": "Bone"
      },
      "translation": [
        0.31194838881492615,
        0.1365187019109726,
        2.355144879118143e-8
      ],
      "rotation": [
        -0.49999997019769626,
        0.4999999105930515,
        0.49999991059305504,
        0.5000001192092753
      ],
      "children": [
        3,
        4,
        5,
        6
      ]
    },
    {
      "name": "Bone001",
      "extras": {
        "name": "Bone.001"
      },
      "translation": [
        1.6653324193553667e-16,
        0.30269667506217957,
        1.4901161193847656e-8
      ],
      "rotation": [
        1.5600911219486605e-8,
        2.9150570447454117e-8,
        -0.47185788062388523,
        0.8816746228020483
      ]
    },
    {
      "name": "Bone002",
      "extras": {
        "name": "Bone.002"
      },
      "translation": [
        1.6653324193553667e-16,
        0.30269667506217957,
        1.4901161193847656e-8
      ],
      "rotation": [
        -3.38055493216361e-8,
        6.638630714809797e-8,
        0.4537777942019339,
        0.8911148710964382
      ]
    },
    {
      "name": "Bone003",
      "extras": {
        "name": "Bone.003"
      },
      "translation": [
        1.6653324193553667e-16,
        0.30269667506217957,
        1.4901161193847656e-8
      ],
      "rotation": [
        -1.97218488267152e-8,
        -1.033332357520786e-8,
        0.8857793173335428,
        -0.46410666983369503
      ]
    },
    {
      "name": "Bone004",
      "extras": {
        "name": "Bone.004"
      },
      "translation": [
        1.6653324193553667e-16,
        0.30269667506217957,
        1.4901161193847656e-8
      ],
      "rotation": [
        -1.6659798753375828e-9,
        8.32989795595601e-10,
        0.8944272320155644,
        0.4472135134686514
      ]
    },
    {
      "name": "neutral_bone",
      "extras": {
        "name": "neutral_bone"
      },
      "rotation": [
        -0.70710676908493,
        0,
        0,
        0.7071067932881648
      ]
    },
    {
      "name": "Retopo_Cube013",
      "extras": {
        "name": "Retopo_Cube.013"
      },
      "mesh": 0,
      "skin": 0
    }
  ],
  "skins": [
    {
      "inverseBindMatrices": 6,
      "skeleton": 2,
      "joints": [
        2,
        3,
        4,
        5,
        6,
        7
      ]
    }
  ],
  "scenes": [
    {
      "name": "AuxScene",
      "nodes": [
        0
      ]
    }
  ],
  "scene": 0,
  "extensionsUsed": [
    "KHR_materials_emissive_strength"
  ]
}